D:\school\WTK\thesis\model\3dpredictsim\Results\Batchsim_tmt_linear_v2\Pog_s1_tmt_aCst_d02_k800_ig24_pas_GRF.mot
nRows=17
nColumns=19

name D:\school\WTK\thesis\model\3dpredictsim\Results\Batchsim_tmt_linear_v2\Pog_s1_tmt_aCst_d02_k800_ig24_pas_GRF.mot
datacolumns 19
datarows 17
range 0.5387727225 0.7111799936
endheader
time 	ground_force_vx	ground_force_vy	ground_force_vz	ground_force_px	ground_force_py	ground_force_pz	1_ground_force_vx	1_ground_force_vy	1_ground_force_vz	1_ground_force_px	1_ground_force_py	1_ground_force_pz	ground_torque_x	ground_torque_y	ground_torque_z	1_ground_torque_x	1_ground_torque_y	1_ground_torque_z
        0.5387727225	      126.9352800791	      529.5018291695	       -3.9112723540	        0.3270107954	        0.0000000000	        0.0484485701	      -57.4101847752	       40.5114274025	      -11.1355735574	        0.8377583551	        0.0000000000	       -0.0466771374	        0.0000000000	        0.0000000000	        0.0000000000	        0.0000000000	        0.0000000000	        0.0000000000	
        0.5495481769	      101.3590699129	      440.3480501058	        1.2176276864	        0.3370579572	        0.0000000000	        0.0471892691	     -106.8066881896	       93.4183114002	      -28.7286679300	        0.8480235964	        0.0000000000	       -0.0446612893	        0.0000000000	        0.0000000000	        0.0000000000	        0.0000000000	        0.0000000000	        0.0000000000	
        0.5603236313	       67.0857828877	      337.8887830489	        7.0315857795	        0.3531829237	        0.0000000000	        0.0447819704	     -110.6840917913	      201.7758751577	      -56.1819826055	        0.8546879467	        0.0000000000	       -0.0436035092	        0.0000000000	        0.0000000000	        0.0000000000	        0.0000000000	        0.0000000000	        0.0000000000	
        0.5710990858	       31.1842829367	      237.4613449443	        5.3686320766	        0.3788238345	        0.0000000000	        0.0403909015	      -61.3246811292	      368.2671336339	       -9.5887130248	        0.8596458150	        0.0000000000	       -0.0426472918	        0.0000000000	        0.0000000000	        0.0000000000	        0.0000000000	        0.0000000000	        0.0000000000	
        0.5818745402	        7.5459212784	      162.0416176550	        8.9018402692	        0.4098953479	        0.0000000000	        0.0331158974	      -71.5848746941	      578.8997742904	        6.0215687805	        0.8681521857	        0.0000000000	       -0.0447901209	        0.0000000000	        0.0000000000	        0.0000000000	        0.0000000000	        0.0000000000	        0.0000000000	
        0.5926499947	       -1.5517382480	      134.8735209104	       12.6840609881	        0.4143827627	        0.0000000000	        0.0318777813	     -111.0011476767	      787.3640755421	       13.8376666872	        0.8768328770	        0.0000000000	       -0.0474188057	        0.0000000000	        0.0000000000	        0.0000000000	        0.0000000000	        0.0000000000	        0.0000000000	
        0.6034254491	       -2.1278171073	      101.7301704018	       14.2191566298	        0.4149959369	        0.0000000000	        0.0320761988	     -128.2728458477	      894.9116947006	       17.4097858997	        0.8826756414	        0.0000000000	       -0.0490385548	        0.0000000000	        0.0000000000	        0.0000000000	        0.0000000000	        0.0000000000	        0.0000000000	
        0.6142009036	       -4.8605961563	       65.2768225256	       13.2774485772	        0.4154921526	        0.0000000000	        0.0322024831	     -125.9275566349	      904.2050751037	       17.9086185763	        0.8869240296	        0.0000000000	       -0.0500916740	        0.0000000000	        0.0000000000	        0.0000000000	        0.0000000000	        0.0000000000	        0.0000000000	
        0.6249763580	       -8.8763971129	       27.1632587583	        6.7181189055	        0.4151895604	        0.0000000000	        0.0318725947	     -115.9973409991	      869.6350173420	       17.4146571000	        0.8905831471	        0.0000000000	       -0.0508524521	        0.0000000000	        0.0000000000	        0.0000000000	        0.0000000000	        0.0000000000	        0.0000000000	
        0.6357518125	        0.1634920091	       -0.1624132074	       -0.0135020349	        0.0000000000	        0.0000000000	        0.0000000000	     -103.6089442574	      832.4785396957	       15.9599196775	        0.8944403915	        0.0000000000	       -0.0514943668	        0.0000000000	        0.0000000000	        0.0000000000	        0.0000000000	        0.0000000000	        0.0000000000	
        0.6465272669	        0.0005126817	       -0.0004179894	        0.0000042227	        0.0000000000	        0.0000000000	        0.0000000000	      -94.5375457906	      807.7375500208	       17.1010282141	        0.8995698128	        0.0000000000	       -0.0521687239	        0.0000000000	        0.0000000000	        0.0000000000	        0.0000000000	        0.0000000000	        0.0000000000	
        0.6573027214	        0.0002180497	       -0.0001546780	        0.0000059467	        0.0000000000	        0.0000000000	        0.0000000000	      -87.0756965541	      783.7887576307	       17.0604826551	        0.9056831754	        0.0000000000	       -0.0524019055	        0.0000000000	        0.0000000000	        0.0000000000	        0.0000000000	        0.0000000000	        0.0000000000	
        0.6680781758	        0.0015755133	       -0.0010017482	        0.0000560704	        0.0000000000	        0.0000000000	        0.0000000000	      -78.5004085992	      748.5993614567	       16.7851860709	        0.9115857595	        0.0000000000	       -0.0525211042	        0.0000000000	        0.0000000000	        0.0000000000	        0.0000000000	        0.0000000000	        0.0000000000	
        0.6788536303	        0.0053372673	       -0.0031105218	        0.0002112605	        0.0000000000	        0.0000000000	        0.0000000000	      -70.2262407365	      712.1468848462	       16.4817229689	        0.9173707039	        0.0000000000	       -0.0525223243	        0.0000000000	        0.0000000000	        0.0000000000	        0.0000000000	        0.0000000000	        0.0000000000	
        0.6896290847	       -0.0593564129	        0.0321930249	       -0.0024980825	        0.0000000000	        0.0000000000	        0.0000000000	      -62.3532335034	      681.1806508280	       16.3941449406	        0.9230585310	        0.0000000000	       -0.0524753427	        0.0000000000	        0.0000000000	        0.0000000000	        0.0000000000	        0.0000000000	        0.0000000000	
        0.7004045392	       -0.0420964734	        0.0214814306	       -0.0018523540	        0.0000000000	        0.0000000000	        0.0000000000	      -54.9804796025	      656.3012288133	       16.7067517159	        0.9284745105	        0.0000000000	       -0.0524233937	        0.0000000000	        0.0000000000	        0.0000000000	        0.0000000000	        0.0000000000	        0.0000000000	
        0.7111799936	       -0.0303070964	        0.0146798534	       -0.0013722754	        0.0000000000	        0.0000000000	        0.0000000000	      -48.2615125626	      636.9271507824	       17.0669647106	        0.9335971311	        0.0000000000	       -0.0523590982	        0.0000000000	        0.0000000000	        0.0000000000	        0.0000000000	        0.0000000000	        0.0000000000	
